<?xml version="1.0" encoding="UTF-8"?>
<svg id="Layer_1" data-name="Layer 1" xmlns="http://www.w3.org/2000/svg" viewBox="0 0 1566 583.63">
  <defs>
    <style>
      .cls-1 {
        fill: #ecc462;
      }

      .cls-2 {
        fill: #ecc36b;
      }

      .cls-3 {
        fill: #ebc562;
      }
    </style>
  </defs>
  <g>
    <path class="cls-3" d="m576.16,274.5c-6.52,107.81-53.14,183.57-148.12,227.57-55.14,25.54-111.99,27.79-167.67,5.73-76.72-30.39-126.78-86.38-145.41-168.04-29.88-130.97,57.62-263.24,190.38-288.3,115.75-21.85,231.19,51.07,261.13,165.73,5.25,20.1,7.03,41.1,9.69,57.3Zm-5.1,4.97c-2.25-16.1-3.65-32.38-6.89-48.29-26.78-131.23-161.97-209.04-288.65-166.42-114.53,38.53-182.23,157.64-154.95,275.29,19.75,85.17,74.04,140.35,156.01,167.41,45.34,14.97,90.96,11.67,136.46-4.95,92.73-33.87,157.19-124.19,158.03-223.05Z"/>
    <path class="cls-3" d="m335.99,500.99c-77.48-2.82-142.24-32.35-185.22-99.18-44.81-69.69-45.74-143.18-6.16-215.45,36.91-67.41,96.12-105.52,171.57-116.29,93.51-13.35,188.48,31.43,230.15,118.94,33.78,70.94,28.04,141.21-14.62,206.53-45.45,69.6-112.59,102.18-195.71,105.45Zm193.72-207.4c-.56-63.7-22.63-107.96-64.46-141.72-72.47-58.48-171.85-58.23-245.91-.54-80.86,62.98-86.84,183.96-12.57,254.46,58.21,55.26,144.21,70.65,216.93,36.45,66.26-31.16,103.1-83.5,106.01-148.65Zm-405.3,15.82c3.4,62.85,45.51,132.33,119.93,166.17,80.89,36.78,170.93,16.15,215.08-18.03-66.96,32.51-135.3,35.29-203.5,6.4-69.15-29.3-114.39-80.37-131.51-154.53Zm102.03-199.83c66.83-31.59,134.65-33.61,202.23-5.09,68.22,28.79,113.05,79.11,131.34,151.69-9.24-70.3-45.12-122.81-107.3-156.75-78.59-42.9-170.83-29.1-226.27,10.15Zm282.67,60.48c88.41,116.21,17.38,278.46-131.32,305.17,52.14-1.76,127.76-38.09,161.1-106.25,35.12-71.81,15.14-150.71-29.78-198.92Zm-334.46,227.3c-40.31-58.31-50.65-120.57-22.09-186.23,28.26-64.96,80.91-101.02,148.59-117.24-57.1,3.77-127.81,44.29-157.58,109.08-32.56,70.86-12.24,147.19,31.08,194.4Zm290.83,27.18c-79.36,52.96-158.85,54.22-239.49,5.91,65.85,57.61,178.31,53.63,239.49-5.91ZM223.14,140.2c78.56-49.6,157.15-50.02,237.98.18-60.63-56.49-174.17-59.53-237.98-.18Zm-37.74,29.02c-25.18,25-42.93,73.35-43.38,114.03-.5,44.92,21.72,96.53,42.13,113.31-48.42-75.88-47.88-151.66,1.25-227.34Zm313-.25c47.91,72.4,49.98,146.25,6.66,221.54,52.39-64.4,47.41-162.91-6.66-221.54Z"/>
    <path class="cls-3" d="m397.03,299.42c15.14,25.48,29.86,50.24,45.66,76.82-14.68,0-27.71.28-40.7-.29-2.09-.09-4.53-3.7-5.94-6.17-11.16-19.51-22.32-39.02-32.97-58.8-2.88-5.35-6.06-7.57-12.19-7.3-11.29.49-22.63.14-34.54.14v-32.55c11.29,0,22.28.16,33.26-.05,9.21-.18,18.56.04,27.6-1.43,13-2.11,18.5-9.58,18.4-22.44-.09-12.41-5.43-19.94-18.28-21.43-14.3-1.66-28.85-1.22-43.3-1.59-5.51-.14-11.03-.02-17.42-.02v-31.77c1.64-.31,3.38-.96,5.11-.93,21.23.37,42.51-.02,63.66,1.48,40.91,2.91,52.42,30.47,48.11,65.81-2.56,20.98-14.57,34.77-36.43,40.53Z"/>
    <path class="cls-3" d="m240.85,192.02h37.84c.19,3.61.5,6.88.5,10.16.03,31.13.01,62.26.02,93.38,0,3.7-.02,7.4.09,11.09.87,29.12,11.53,40.73,40.95,39.4,16.64-.75,26.7,4.11,32.25,19.39,1.22,3.36,3.19,6.44,6.1,12.19-25.95-1.39-50.04-.99-73.57-4.43-23.32-3.4-41.65-26.26-42.58-50.76-1.31-34.77-1.16-69.6-1.59-104.4-.1-8.28-.02-16.57-.02-26.04Z"/>
  </g>
  <g>
    <g>
      <path class="cls-2" d="m645.84,155.3h22.59v66.46h32.31v18.91h-54.9v-85.38Z"/>
      <path class="cls-2" d="m709.68,199.44v-44.13h22.59v46.76c0,15.24,3.94,20.75,12.87,20.75s13.13-5.52,13.13-20.75v-46.76h21.8v44.13c0,29.16-11.03,42.82-34.94,42.82s-35.46-13.66-35.46-42.82Z"/>
      <path class="cls-2" d="m794.79,198.65c0-28.63,19.7-44.92,41.24-44.92,11.3,0,20.49,5.25,26.53,11.3l-11.82,14.45c-4.2-3.68-8.41-6.3-14.19-6.3-9.98,0-18.65,9.19-18.65,24.69s7.36,24.96,18.39,24.96c6.57,0,11.82-3.42,15.5-7.36l11.82,14.19c-7.22,8.41-17.08,12.61-28.11,12.61-21.8,0-40.72-14.45-40.72-43.61Z"/>
      <path class="cls-2" d="m875.44,155.3h22.59v85.38h-22.59v-85.38Z"/>
      <path class="cls-2" d="m916.94,155.3h22.59v66.46h32.31v18.91h-54.9v-85.38Z"/>
      <path class="cls-2" d="m986.56,155.3h55.17v18.91h-32.57v13.4h27.85v18.91h-27.85v15.24h33.89v18.91h-56.48v-85.38Z"/>
      <path class="cls-2" d="m645.84,279.3h32.31c18.39,0,34.15,6.3,34.15,27.58s-15.76,29.16-34.15,29.16h-9.72v28.63h-22.59v-85.38Zm30.74,38.88c8.93,0,13.66-3.94,13.66-11.3s-4.73-9.72-13.66-9.72h-8.14v21.02h8.14Zm-2.5,11.95l15.24-14.97,27.71,49.52h-25.22l-17.73-34.54Z"/>
      <path class="cls-2" d="m728.59,279.3h55.17v18.91h-32.57v13.4h27.85v18.91h-27.85v15.24h33.89v18.91h-56.48v-85.38Z"/>
      <path class="cls-2" d="m816.86,279.3h27.32l26.01,85.38h-23.91l-9.72-41.51c-2.1-8.14-4.2-18.52-6.3-27.06h-.53c-1.84,8.67-3.94,18.91-6.04,27.06l-9.72,41.51h-23.12l26.01-85.38Zm-7.36,49.78h41.77v17.47h-41.77v-17.47Z"/>
      <path class="cls-2" d="m877.01,279.3h22.59v66.46h32.31v18.91h-54.9v-85.38Z"/>
      <path class="cls-2" d="m972.9,279.3h55.17v18.91h-32.57v13.4h27.85v18.91h-27.85v15.24h33.89v18.91h-56.48v-85.38Z"/>
      <path class="cls-2" d="m1040.67,354.04l12.87-15.5c6.04,4.86,13.66,8.28,19.96,8.28,6.83,0,9.72-2.23,9.72-6.04,0-4.07-4.33-5.39-11.56-8.28l-10.64-4.47c-9.2-3.68-17.21-11.43-17.21-23.77,0-14.58,13.13-26.53,31.79-26.53,9.72,0,20.49,3.68,28.37,11.43l-11.3,14.19c-5.78-4.07-10.77-6.17-17.08-6.17-5.52,0-8.93,1.97-8.93,5.78,0,4.07,4.86,5.52,12.61,8.54l10.38,4.07c10.64,4.2,16.68,11.56,16.68,23.38,0,14.45-12.08,27.32-33.36,27.32-10.77,0-23.12-3.94-32.31-12.22Z"/>
      <path class="cls-2" d="m1133.67,298.22h-22.59v-18.91h67.78v18.91h-22.59v66.46h-22.59v-66.46Z"/>
      <path class="cls-2" d="m1201.44,279.3h27.32l26.01,85.38h-23.91l-9.72-41.51c-2.1-8.14-4.2-18.52-6.3-27.06h-.53c-1.84,8.67-3.94,18.91-6.04,27.06l-9.72,41.51h-23.12l26.01-85.38Zm-7.36,49.78h41.77v17.47h-41.77v-17.47Z"/>
      <path class="cls-2" d="m1268.69,298.22h-22.59v-18.91h67.78v18.91h-22.59v66.46h-22.59v-66.46Z"/>
      <path class="cls-2" d="m1326.49,279.3h55.17v18.91h-32.57v13.4h27.85v18.91h-27.85v15.24h33.89v18.91h-56.48v-85.38Z"/>
    </g>
    <g>
      <path class="cls-1" d="m652.76,451.81l-.03-50.58h13.88c8.76,0,15.63,2.26,20.63,6.79,5,4.52,7.5,10.68,7.5,18.47s-2.49,13.84-7.46,18.43c-4.97,4.59-11.85,6.89-20.63,6.89h-13.88Zm5.84-5.3l8.07.07c6.82,0,12.21-1.72,16.17-5.17,3.96-3.44,5.94-8.4,5.94-14.86s-1.97-11.49-5.91-14.89c-3.94-3.4-9.34-5.1-16.21-5.1h-8.07v39.94Z"/>
      <path class="cls-1" d="m710.39,422.2h-.07c3.29-6.69,8.42-10.03,15.4-10.03v6.18h-.84c-1.78,0-3.48.3-5.1.91-1.6.61-3.13,1.55-4.59,2.84-1.42,1.26-2.58,3.11-3.48,5.54-.88,2.39-1.32,5.17-1.32,8.34v15.83h-5.6v-39.2h5.6v9.59Z"/>
      <path class="cls-1" d="m751.96,452.59l-.07.2c-6.44,0-11.54-1.85-15.29-5.54-3.74-3.67-5.6-8.59-5.6-14.75,0-6.5,1.87-11.55,5.6-15.13,3.74-3.58,8.26-5.37,13.57-5.37,5.76,0,10.39,1.79,13.88,5.37,3.49,3.6,5.23,8.69,5.23,15.26,0,.72-.05,1.61-.14,2.67h-32.24c.16,3.35,1.61,6.27,4.36,8.74,2.72,2.45,6.3,3.68,10.74,3.68,2.21,0,4.3-.34,6.28-1.01,1.94-.65,3.36-1.32,4.29-1.99l1.32-1.05,3.11,3.41c-.23.23-.43.42-.61.57-.22.2-.82.64-1.79,1.32-.95.65-1.95,1.22-3,1.69-1.06.47-2.46.91-4.22,1.32-1.73.4-3.53.61-5.4.61Zm-1.79-35.35l-.03.07c-3.87,0-7.06,1.28-9.55,3.85-2.5,2.57-3.75,5.72-3.75,9.45h26.44c0-3.78-1.18-6.96-3.55-9.52-2.36-2.57-5.55-3.85-9.55-3.85Z"/>
      <path class="cls-1" d="m805.03,451.81l.03-.03c0-1.04-.01-1.97-.03-2.8-.02-.83-.03-1.78-.03-2.84-2.79,4.14-7.42,6.21-13.88,6.21-4.5,0-8.16-1.09-10.97-3.27-2.84-2.18-4.25-5.19-4.25-9.01s1.58-6.99,4.73-9.35c3.13-2.36,7.15-3.54,12.05-3.54,3.87,0,7.97.6,12.29,1.79.04-4.07-.83-7.11-2.63-9.12-1.8-2-4.74-3-8.81-3-4.48,0-8.8,1.01-12.96,3.04l-1.72-4.42c5.18-2.5,10.25-3.75,15.23-3.75,10.92,0,16.38,5.72,16.38,17.15v22.96h-5.4Zm-13.03-4.05l-.07-.03c1.35,0,2.77-.19,4.25-.57,1.39-.36,2.79-.92,4.19-1.69,1.33-.72,2.42-1.79,3.27-3.21.86-1.4,1.28-2.98,1.28-4.76v-4.22c-3.92-1.19-7.74-1.79-11.48-1.79-3.51,0-6.35.78-8.51,2.33-2.16,1.55-3.24,3.52-3.24,5.91,0,2.61.95,4.6,2.84,5.98,1.87,1.37,4.36,2.06,7.46,2.06Z"/>
      <path class="cls-1" d="m867.69,411.91l-.1.1c4.23,0,7.66,1.43,10.3,4.29,2.63,2.88,3.95,6.6,3.95,11.14v24.48h-5.6v-23.43c0-3.51-.93-6.27-2.8-8.27-1.87-2-4.33-3-7.39-3s-5.82,1.19-7.93,3.58c-2.12,2.39-3.17,5.42-3.17,9.12v21.98h-5.54v-23.16c0-3.62-.9-6.46-2.7-8.51-1.8-2.03-4.17-3.04-7.09-3.04-3.38,0-6.14,1.41-8.3,4.22-2.16,2.81-3.24,5.75-3.24,8.81v21.64h-5.6v-39.2h5.6v6.92c3.51-5.04,7.82-7.58,12.93-7.63,2.81,0,5.31.71,7.5,2.13,2.21,1.42,3.88,3.33,5.03,5.74,3.69-5.27,8.42-7.9,14.18-7.9Z"/>
      <path class="cls-1" d="m923.27,403.13l.03.07c0,1.04-.37,1.9-1.11,2.6-.77.72-1.64,1.08-2.63,1.08s-1.94-.36-2.7-1.08c-.74-.7-1.11-1.56-1.11-2.6s.37-1.83,1.11-2.53c.76-.72,1.67-1.08,2.7-1.08s1.91.34,2.63,1.01c.72.67,1.08,1.52,1.08,2.53Zm-6.55,48.75v-39.2h5.54v39.2h-5.54Z"/>
      <path class="cls-1" d="m943.35,417.71l-.03,24.65c0,1.71.44,3,1.32,3.88s2.08,1.32,3.61,1.32c.83,0,1.6-.08,2.3-.24.74-.16,1.28-.33,1.62-.51l.54-.3,1.38,4.29c-1.71,1.12-4.01,1.71-6.89,1.76-2.9,0-5.21-.8-6.92-2.4-1.69-1.6-2.53-3.79-2.53-6.58v-25.86h-4.36v-1.32l9.66-11.11h.3v7.33h9.59v5.1h-9.59Z"/>
      <path class="cls-1" d="m961.99,452.29c-1.17,0-2.14-.41-2.9-1.22-.79-.83-1.18-1.79-1.18-2.87s.39-2.04,1.18-2.87c.76-.81,1.73-1.22,2.9-1.22s2.15.41,2.94,1.22c.79.83,1.18,1.79,1.18,2.87s-.39,2.04-1.18,2.87c-.79.81-1.77,1.22-2.94,1.22Z"/>
      <path class="cls-1" d="m996.26,441.79l-.1.07c4.84,3.65,10.53,5.47,17.08,5.47,8.39,0,12.59-2.84,12.59-8.51,0-1.87-.61-3.42-1.82-4.66-1.24-1.28-2.8-2.25-4.69-2.9-1.91-.67-4.04-1.28-6.38-1.82-2.27-.52-4.61-1.13-7.02-1.82-2.39-.68-4.52-1.5-6.42-2.46-1.91-.97-3.48-2.35-4.69-4.15-1.22-1.78-1.82-3.94-1.82-6.48s.54-4.69,1.62-6.58c1.08-1.89,2.53-3.38,4.36-4.46s3.78-1.89,5.88-2.43c2.09-.54,4.24-.81,6.45-.81,6.93,0,12.71,1.8,17.32,5.4l-3.11,4.56c-4.21-2.95-9.1-4.42-14.69-4.42-3.24,0-6.03.69-8.37,2.06-2.36,1.37-3.54,3.5-3.54,6.38,0,1.76.61,3.22,1.82,4.39,1.22,1.17,2.79,2.08,4.73,2.73,1.85.61,3.98,1.19,6.42,1.76,2.36.54,4.73,1.15,7.09,1.82,2.41.7,4.54,1.55,6.38,2.57,1.89,1.06,3.44,2.54,4.66,4.46,1.21,1.91,1.82,4.21,1.82,6.89,0,4.57-1.69,8.04-5.06,10.4-3.38,2.36-7.81,3.54-13.3,3.54-3.94,0-7.75-.61-11.45-1.82-3.65-1.19-6.66-2.77-9.05-4.73l3.31-4.42Z"/>
      <path class="cls-1" d="m1058.82,452.59l-.07.2c-6.44,0-11.54-1.85-15.29-5.54-3.74-3.67-5.6-8.59-5.6-14.75,0-6.5,1.87-11.55,5.6-15.13,3.74-3.58,8.26-5.37,13.57-5.37,5.76,0,10.39,1.79,13.88,5.37,3.49,3.6,5.23,8.69,5.23,15.26,0,.72-.05,1.61-.14,2.67h-32.24c.16,3.35,1.61,6.27,4.36,8.74,2.72,2.45,6.3,3.68,10.74,3.68,2.21,0,4.3-.34,6.28-1.01,1.94-.65,3.36-1.32,4.29-1.99l1.32-1.05,3.11,3.41c-.23.23-.43.42-.61.57-.22.2-.82.64-1.79,1.32-.95.65-1.95,1.22-3,1.69-1.06.47-2.46.91-4.22,1.32-1.73.4-3.53.61-5.4.61Zm-1.79-35.35l-.03.07c-3.87,0-7.06,1.28-9.55,3.85-2.5,2.57-3.75,5.72-3.75,9.45h26.44c0-3.78-1.18-6.96-3.55-9.52-2.36-2.57-5.55-3.85-9.55-3.85Z"/>
      <path class="cls-1" d="m1103.83,452.59l-.07.2c-6.44,0-11.54-1.85-15.29-5.54-3.74-3.67-5.6-8.59-5.6-14.75,0-6.5,1.87-11.55,5.6-15.13,3.74-3.58,8.26-5.37,13.57-5.37,5.76,0,10.39,1.79,13.88,5.37,3.49,3.6,5.23,8.69,5.23,15.26,0,.72-.05,1.61-.14,2.67h-32.24c.16,3.35,1.61,6.27,4.36,8.74,2.72,2.45,6.3,3.68,10.74,3.68,2.21,0,4.3-.34,6.28-1.01,1.94-.65,3.36-1.32,4.29-1.99l1.32-1.05,3.11,3.41c-.23.23-.43.42-.61.57-.22.2-.82.64-1.79,1.32-.95.65-1.95,1.22-3,1.69-1.06.47-2.46.91-4.22,1.32-1.73.4-3.53.61-5.4.61Zm-1.79-35.35l-.03.07c-3.87,0-7.06,1.28-9.55,3.85-2.5,2.57-3.75,5.72-3.75,9.45h26.44c0-3.78-1.18-6.96-3.55-9.52-2.36-2.57-5.55-3.85-9.55-3.85Z"/>
      <path class="cls-1" d="m1160.24,403.13l.03.07c0,1.04-.37,1.9-1.11,2.6-.77.72-1.64,1.08-2.63,1.08s-1.94-.36-2.7-1.08c-.74-.7-1.11-1.56-1.11-2.6s.37-1.83,1.11-2.53c.76-.72,1.67-1.08,2.7-1.08s1.91.34,2.63,1.01c.72.67,1.08,1.52,1.08,2.53Zm-6.55,48.75v-39.2h5.54v39.2h-5.54Z"/>
      <path class="cls-1" d="m1180.33,417.71l-.03,24.65c0,1.71.44,3,1.32,3.88s2.08,1.32,3.61,1.32c.83,0,1.6-.08,2.3-.24.74-.16,1.28-.33,1.62-.51l.54-.3,1.38,4.29c-1.71,1.12-4.01,1.71-6.89,1.76-2.9,0-5.21-.8-6.92-2.4-1.69-1.6-2.53-3.79-2.53-6.58v-25.86h-4.36v-1.32l9.66-11.11h.3v7.33h9.59v5.1h-9.59Z"/>
      <path class="cls-1" d="m1198.97,452.29c-1.17,0-2.14-.41-2.9-1.22-.79-.83-1.18-1.79-1.18-2.87s.39-2.04,1.18-2.87c.76-.81,1.73-1.22,2.9-1.22s2.15.41,2.94,1.22c.79.83,1.18,1.79,1.18,2.87s-.39,2.04-1.18,2.87c-.79.81-1.77,1.22-2.94,1.22Z"/>
      <path class="cls-1" d="m1265.89,446.48v5.33h-32.01v-50.61h5.88v45.28h26.13Z"/>
      <path class="cls-1" d="m1281.45,403.13l.03.07c0,1.04-.37,1.9-1.11,2.6-.77.72-1.64,1.08-2.63,1.08s-1.94-.36-2.7-1.08c-.74-.7-1.11-1.56-1.11-2.6s.37-1.83,1.11-2.53c.76-.72,1.67-1.08,2.7-1.08s1.91.34,2.63,1.01c.72.67,1.08,1.52,1.08,2.53Zm-6.55,48.75v-39.2h5.54v39.2h-5.54Z"/>
      <path class="cls-1" d="m1288.74,412.61h6.21l13.4,32.01,13.44-32.01h6.21l-16.88,39.2h-5.54l-16.85-39.2Z"/>
      <path class="cls-1" d="m1352.89,452.59l-.07.2c-6.44,0-11.54-1.85-15.29-5.54-3.74-3.67-5.6-8.59-5.6-14.75,0-6.5,1.87-11.55,5.6-15.13,3.74-3.58,8.26-5.37,13.57-5.37,5.76,0,10.39,1.79,13.88,5.37,3.49,3.6,5.23,8.69,5.23,15.26,0,.72-.05,1.61-.14,2.67h-32.24c.16,3.35,1.61,6.27,4.36,8.74,2.72,2.45,6.3,3.68,10.74,3.68,2.21,0,4.3-.34,6.28-1.01,1.94-.65,3.36-1.32,4.29-1.99l1.32-1.05,3.11,3.41c-.23.23-.43.42-.61.57-.22.2-.82.64-1.79,1.32-.95.65-1.95,1.22-3,1.69-1.06.47-2.46.91-4.22,1.32-1.73.4-3.53.61-5.4.61Zm-1.79-35.35l-.03.07c-3.87,0-7.06,1.28-9.55,3.85-2.5,2.57-3.75,5.72-3.75,9.45h26.44c0-3.78-1.18-6.96-3.55-9.52-2.36-2.57-5.55-3.85-9.55-3.85Z"/>
      <path class="cls-1" d="m1409.31,403.13l.03.07c0,1.04-.37,1.9-1.11,2.6-.77.72-1.64,1.08-2.63,1.08s-1.94-.36-2.7-1.08c-.74-.7-1.11-1.56-1.11-2.6s.37-1.83,1.11-2.53c.76-.72,1.67-1.08,2.7-1.08s1.91.34,2.63,1.01c.72.67,1.08,1.52,1.08,2.53Zm-6.55,48.75v-39.2h5.54v39.2h-5.54Z"/>
      <path class="cls-1" d="m1429.4,417.71l-.03,24.65c0,1.71.44,3,1.32,3.88s2.08,1.32,3.61,1.32c.83,0,1.6-.08,2.3-.24.74-.16,1.28-.33,1.62-.51l.54-.3,1.38,4.29c-1.71,1.12-4.01,1.71-6.89,1.76-2.9,0-5.21-.8-6.92-2.4-1.69-1.6-2.53-3.79-2.53-6.58v-25.86h-4.36v-1.32l9.66-11.11h.3v7.33h9.59v5.1h-9.59Z"/>
      <path class="cls-1" d="m1448.03,452.29c-1.17,0-2.14-.41-2.9-1.22-.79-.83-1.18-1.79-1.18-2.87s.39-2.04,1.18-2.87c.76-.81,1.73-1.22,2.9-1.22s2.15.41,2.94,1.22c.79.83,1.18,1.79,1.18,2.87s-.39,2.04-1.18,2.87c-.79.81-1.77,1.22-2.94,1.22Z"/>
    </g>
  </g>
</svg>